<svg id="SvgjsSvg1001" width="288" height="288" xmlns="http://www.w3.org/2000/svg" version="1.1" xmlns:xlink="http://www.w3.org/1999/xlink" xmlns:svgjs="http://svgjs.com/svgjs"><defs id="SvgjsDefs1002"></defs><g id="SvgjsG1008" transform="matrix(0.916700005531311,0,0,0.916700005531311,11.995199203491211,11.995199203491211)"><svg xmlns="http://www.w3.org/2000/svg" viewBox="0 0 50 50" width="288" height="288"><path d="M25 3C12.87 3 3 12.87 3 25s9.87 22 22 22 22-9.87 22-22S37.13 3 25 3zm-1.3 2l.96.01C24.77 5 24.89 5 25 5c.21 0 .42 0 .63.02.63 0 1.62.35 1.62 1.45 0 .74-.62 1.09-.95 1.15l1.5 1.93-1.73-.25-1.06-1.45V9.3H23.7V5zm1.66.94l-.39.03.02 1.03h.41c.41 0 .59-.29.58-.55-.01-.27-.26-.51-.62-.51zm6.12.25h.07c.1 0 .21 0 .32.02h.01c.05.01.11.02.17.03.44.08.84.27 1.16.52.67.53 1.03 1.36.86 2.19-.28 1.45-1.54 2.09-2.88 1.78-1.24-.28-2.26-1.6-2.03-2.71.23-1.12 1.19-1.81 2.32-1.83zM15.65 7.32l3.88 2.9-1.43.58-.63-.46-1.36.8.16.74-1.24.92-.54-4.81-.01-.05.99-.52.18-.1zm15.93.06c-.56-.01-.93.31-1.03.83-.12.6.2 1.24.86 1.36.65.12 1.25-.28 1.37-.88.11-.6-.3-1.17-.96-1.29-.08-.01-.16-.02-.24-.02zM15.7 8.86l.27 1.18.72-.42-.99-.76zm21.92.63l.11.09.86.69-.02.05-.83 2.09 2.08-.83.04-.02.83.98-.03.04-2.58 3.69-.83-1.17 1.36-1.84-2.26.92-.46-.44.9-2.23-1.77 1.38-1.09-.85 3.69-2.55zm-26.44 1.03l.02.02.74.65-.95 1.03.44.42.88-.97.76.69-.88.94 1.2 1.06-.87 1.01-3.14-2.78L11 10.72l.18-.2zM25 11c8 0 14.5 6.5 14.5 14.5S33 40 25 40s-14.5-6.5-14.5-14.5S17 11 25 11zm0 1v27c.17 0 .34 0 .5-.01.17-.01.34-.01.5-.03 6.98-.52 12.5-6.36 12.5-13.46 0-7.1-5.52-12.94-12.5-13.46-.16-.02-.33-.02-.5-.03-.16-.01-.33-.01-.5-.01zm-1 .04c-1.41.1-2.75.42-4 .92V23h4V12.04zm-7 2.6c-2.69 1.98-4.63 4.95-5.26 8.36H17v-8.36zm11.88.24c.21 0 .38.16.38.37 0 .2-.17.37-.38.37s-.38-.17-.38-.37c0-.21.17-.37.38-.37zm.97 0c.21 0 .38.16.38.37 0 .2-.17.37-.38.37a.376.376 0 0 1-.38-.37c0-.21.17-.37.38-.37zm.96 0c.21 0 .38.16.38.37 0 .2-.17.37-.38.37s-.38-.17-.38-.37c0-.21.17-.37.38-.37zm.97 0c.21 0 .38.16.38.37 0 .2-.17.37-.38.37a.376.376 0 0 1-.38-.37c0-.21.17-.37.38-.37zm.97 0c.21 0 .37.16.37.37a.374.374 0 0 1-.75 0c0-.21.17-.37.38-.37zm-4.14.97h4.41v.6h-4.41v-.6zm14.13.12l1.08 2.56-.96.39-.56-1.31-.46.2.53 1.22-.94.39-.56-1.26-.48.23.57 1.31-1.03.44-1.11-2.58 3.92-1.59zm-35.81.49l.02.01 2.8 1.3.74-1.29.94.48-1.22 2.49-3.82-1.77h-.01l.07-.15.24-.53.24-.54zm21.68.2h4.41v.6h-4.41v-.6zm-1.47.71h.04c.04 0 .09.01.15.05l.89.63c.11.08.18.23.18.36l-.01.86c0 .34.16.63.38.84.12.11.27.21.42.27-.15.05-.3.15-.42.27-.22.2-.38.49-.38.83l.01.87a.5.5 0 0 1-.19.36l-.88.62c-.08.06-.14.06-.18.05a.291.291 0 0 1-.14-.11c-.06-.1-.09-.22.1-.36v-.01h.01l.42-.34c.14-.1.34-.28.34-.59l-.01-.71c0-.15-.05-.32-.2-.43-.14-.12-.35-.13-.55-.07-.14.05-.24.1-.31.13a.676.676 0 0 1-.28.05c-.19 0-.31-.07-.39-.18a.63.63 0 0 1-.14-.36v-.05c0-.1.05-.25.14-.36.08-.11.2-.18.39-.18.14 0 .2.02.28.05.07.02.17.08.31.13.2.06.41.05.55-.07.15-.11.2-.28.2-.44l.01-.7c0-.31-.21-.49-.35-.6l-.42-.33v-.01c-.19-.14-.16-.26-.1-.37.04-.05.08-.08.13-.1zm7.71.59c.49.33.99.71 1.39 1.22.45.58.76 1.32.76 2.41 0 2.05-1.84 3.7-3.61 3.7h-4.27c-.12 0-.24.06-.32.15a.476.476 0 0 0-.1.3c0 .1.03.21.1.29.08.09.2.15.32.15h4.17c1.5 0 2.3 1.01 2.3 2.19 0 1.16-.83 2.25-2.29 2.25h-4.29c-.11 0-.22.05-.29.13-.07.08-.09.17-.09.27 0 .09.03.18.09.26.07.08.18.13.28.13h3.2c.69 0 1.28.7 1.28 1.37 0 .33-.09.65-.3.87-.2.23-.53.4-1.08.4h-1.92a.36.36 0 0 0-.23.07.371.371 0 0 0-.13.27c.01.11.07.21.14.26.07.05.15.07.22.07h1.28c.18 0 .31.08.41.22.11.13.17.32.17.47 0 .18-.07.35-.18.46-.08.07-.18.12-.32.13 0-.08 0-.16-.05-.27-.05-.12-.22-.22-.35-.22h-.77c-.26 0-.56-.1-.77-.3-.22-.2-.37-.48-.37-.88 0-.37.15-.63.36-.82.21-.19.49-.29.7-.29h1.87c.09 0 .17-.02.25-.07a.34.34 0 0 0 .16-.28c0-.13-.08-.24-.16-.29a.442.442 0 0 0-.25-.06h-2.94c-1.13 0-1.76-.84-1.76-1.74 0-.8.66-1.75 1.66-1.75h4.38a.42.42 0 0 0 .41-.44c0-.1-.03-.2-.1-.29a.405.405 0 0 0-.31-.15h-4.46c-1.25 0-2.23-.96-2.23-2.41 0-1.22.95-2.46 2.36-2.46h4.04c.22 0 .42-.11.54-.26.12-.15.17-.33.18-.52a.84.84 0 0 0-.18-.52.693.693 0 0 0-.54-.25H28.9v-.26c0-.15.08-.31.21-.43.13-.13.3-.2.41-.2h2.42c.09 0 .18-.02.27-.08.1-.07.18-.21.18-.39 0-.18-.05-.27-.18-.38a.474.474 0 0 0-.27-.08h-2.42c-.11 0-.28-.08-.41-.2a.615.615 0 0 1-.21-.44v-.15h2.95a.72.72 0 0 0 .43-.15c.11-.09.21-.24.21-.42v-.23h1.43c.38.01.7-.14.93-.36zM9.66 21.08l-.21 1.5-.76.18-.09 1.59.64.3.03 1.54-4.24-2.28-.03-.02.08-.71.08-.63 4.5-1.47zm33.06.14c1.19 0 1.94.73 2.18 1.71.01.01.01.02 0 .03.07.23.1.47.1.72 0 .13-.01.26-.03.39-.15 1.17-1.02 2.07-2.25 2.07-1.37 0-2.26-1.23-2.26-2.46s.75-2.46 2.26-2.46zm.03 1.33c-.67 0-1.03.55-1.03 1.13 0 .58.38 1.13 1.03 1.13s1.05-.63 1.05-1.13c0-.51-.39-1.13-1.05-1.13zm-35.07.47l-1.27.31 1.22.57.05-.88zM11.51 26c.16 4.25 2.28 8 5.49 10.36V26h-5.49zM20 26v12.04c1.25.5 2.59.82 4 .92V26h-4z" fill="#ffffff" class="color000 svgShape"></path></svg></g></svg>