<svg id="SvgjsSvg1019" width="288" height="288" xmlns="http://www.w3.org/2000/svg" version="1.1" xmlns:xlink="http://www.w3.org/1999/xlink" xmlns:svgjs="http://svgjs.com/svgjs"><defs id="SvgjsDefs1020"></defs><g id="SvgjsG1021" transform="matrix(0.916700005531311,0,0,0.916700005531311,12.229480743408203,11.667205810546875)"><svg xmlns="http://www.w3.org/2000/svg" width="288" height="288" fill-rule="evenodd" clip-rule="evenodd" image-rendering="optimizeQuality" shape-rendering="geometricPrecision" text-rendering="geometricPrecision" viewBox="0 0 512 512"><path fill="#ffffff" d="M261 5c135 0 244 109 244 244S396 493 261 493 17 384 17 249 126 5 261 5zm4 23l32 191 158 136c18-32 28-68 28-107 0-121-97-219-217-221zm188 330l-193-68-189 71c39 65 109 108 190 108 82 0 154-45 192-112zm-384 0l157-134 31-196C137 30 40 128 40 249c0 40 11 77 29 110z" class="color2b2a29 svgShape"></path></svg></g></svg>